<svg viewBox="43.209 41.5103 392.7256 407.9793" width="4813.05791739924" height="5000" xmlns="http://www.w3.org/2000/svg" xmlns:xlink="http://www.w3.org/1999/xlink" preserveAspectRatio="none"><defs></defs><style>.aIptOCySncolors-3 {fill:#2B475C;fill-opacity:1;}.aIptOCySncolors-4 {fill:#D28640;fill-opacity:1;}.aIptOCySncolors-5 {fill:#3B6562;fill-opacity:1;}.aIptOCySncolors-6 {fill:#6D5044;fill-opacity:1;}.aIptOCySncolors-7 {fill:#E3D3BD;fill-opacity:1;}.aRkjzh-6nhcolors-0 {fill:#5E8A75;fill-opacity:1;}.aRkjzh-6nhcolors-1 {fill:#AA9C89;fill-opacity:1;}.aRkjzh-6nhcolors-2 {fill:#77A2C4;fill-opacity:1;}.aRkjzh-6nhcolors-3 {fill:#2B475C;fill-opacity:1;}.aRkjzh-6nhcolors-4 {fill:#D28640;fill-opacity:1;}.aRkjzh-6nhcolors-5 {fill:#3B6562;fill-opacity:1;}.aRkjzh-6nhcolors-6 {fill:#6D5044;fill-opacity:1;}.aRkjzh-6nhcolors-7 {fill:#E3D3BD;fill-opacity:1;}.aT6EkfQqMo0filter-floo {flood-color:#5E8A75;flood-opacity:0.5;}.companyName {fill:#2B475C;fill-opacity:1;}.icon1 {fill:#5E8A75;fill-opacity:1;}.icon2 {fill:#AA9C89;fill-opacity:1;}.icon3 {fill:#77A2C4;fill-opacity:1;}.icon3-str {stroke:#77A2C4;stroke-opacity:1;}.icon4 {fill:#2B475C;fill-opacity:1;}.icon5 {fill:#D28640;fill-opacity:1;}.icon6 {fill:#3B6562;fill-opacity:1;}.icon7 {fill:#6D5044;fill-opacity:1;}.icon8 {fill:#E3D3BD;fill-opacity:1;}.text {fill:#2B475C;fill-opacity:1;}</style><defs>
      <filter
        x="75.5536"
        y="41.5103"
        width="98.1816"
        height="56.5495"
        id="T6EkfQqMo"
        filterUnits="userSpaceOnUse"
        primitiveUnits="userSpaceOnUse"
        color-interpolation-filters="sRGB">
        <feMerge><feMergeNode in="SourceGraphic" /></feMerge>
      </filter>
      <filter
        x="309.5087"
        y="41.5103"
        width="98.1816"
        height="56.5495"
        id="R3pWJVNzOE"
        filterUnits="userSpaceOnUse"
        primitiveUnits="userSpaceOnUse"
        color-interpolation-filters="sRGB">
        <feMerge><feMergeNode in="SourceGraphic" /></feMerge>
      </filter></defs><g opacity="1" transform="rotate(0 154.977 110.0598)">
<svg width="182.4277" height="221.1246" x="154.977" y="110.0598" version="1.1" preserveAspectRatio="none" viewBox="33.99907684326172 20.00016975402832 132.00082397460938 160.00091552734375">
  <g transform="matrix(1 0 0 1 0 0)"><g><path d="M148.281 142.248c-.105-1.674-.833-3.046-1.51-4.11l3.669-2.849s.724 1.456 2.104 1.963c.276.101 3.46-.76 6.582-2.395 3.682-1.928 6.667-5.835 6.863-3.715.458 4.954-13.705 13.946-16.12 14.301-1.263.186-1.472-1.36-1.588-3.195z" data-color="1" class="icon1"></path><path opacity=".3" d="M148.281 142.248c-.105-1.674-.833-3.046-1.51-4.11l3.669-2.849s.724 1.456 2.104 1.963c.276.101 3.46-.76 6.582-2.395 3.682-1.928 6.667-5.835 6.863-3.715.458 4.954-13.705 13.946-16.12 14.301-1.263.186-1.472-1.36-1.588-3.195z"></path><path d="M99.403 173.301c1.132-1.234 1.617-2.71 1.914-3.937l4.589.687s-.547 1.532.042 2.882c.118.27 2.941 1.98 6.278 3.11 3.936 1.333 8.813.792 7.422 2.401-3.25 3.759-19.521-.278-21.447-1.782-1.007-.788-.039-2.008 1.202-3.361z" data-color="1" class="icon1"></path><path opacity=".3" d="M99.403 173.301c1.132-1.234 1.617-2.71 1.914-3.937l4.589.687s-.547 1.532.042 2.882c.118.27 2.941 1.98 6.278 3.11 3.936 1.333 8.813.792 7.422 2.401-3.25 3.759-19.521-.278-21.447-1.782-1.007-.788-.039-2.008 1.202-3.361z"></path><path d="M51.491 171.413l1.339-13.349.001-.005 4.121-41.084a1.657 1.657 0 011.811-1.485 1.657 1.657 0 011.48 1.817l-3.939 39.265h31.57l-3.939-39.265a1.658 1.658 0 011.48-1.817 1.655 1.655 0 011.811 1.485l4.122 41.086v.001l1.339 13.351a1.658 1.658 0 01-1.48 1.817c-.056.006-.112.007-.167.008-.783.022-1.537-.63-1.644-1.493l-1.189-11.855H55.971l-1.189 11.855a1.657 1.657 0 01-1.811 1.485 1.657 1.657 0 01-1.48-1.817z" data-color="1" class="icon1"></path><path d="M57.234 108.095h29.711c3.292 0 5.985 2.701 5.985 6.003 0 3.301-2.693 6.003-5.985 6.003H57.234c-3.292 0-5.985-2.701-5.985-6.003s2.693-6.003 5.985-6.003z" data-color="2" class="icon2"></path><path opacity=".3" d="M58.587 114.61c4.212.527 8.286-.105 15.847-.613s3.256.086 9.494 1.034c3.35.509 6.632.202 8.954-.191-.368 2.954-2.896 5.26-5.937 5.26H57.234c-3.292 0-5.985-2.701-5.985-6.003 0-.069.003-.138.005-.207 2.007-.179 3.621.255 7.333.72z"></path><path d="M100.121 39.347s8.171 2.633 10.434 10.876c2.263 8.242 16.651 28.349 10.67 35.645-5.982 7.297-15.196 4.441-19.319-6.778-4.122-11.22-1.785-39.743-1.785-39.743z" data-color="3" class="icon3"></path><path opacity=".3" d="M100.121 39.347s8.171 2.633 10.434 10.876c2.263 8.242 16.651 28.349 10.67 35.645-5.982 7.297-15.196 4.441-19.319-6.778-4.122-11.22-1.785-39.743-1.785-39.743z"></path><path d="M73.015 96.372s-2.941 15.34 9.893 18.07c12.834 2.731 11.154-1.827 13.509.244 3.595 3.162-4.113 41.385-5.293 49.861-1.179 8.476 10.891 7.568 14.226 6.905 3.306-.657 13.252-43.09 11.852-58.587-1.4-15.496-2.563-25.081-17.656-26.052-16.934-1.087-26.428 6.659-26.531 9.559z" data-color="1" class="icon1"></path><path opacity=".3" d="M73.015 96.372s-2.941 15.34 9.893 18.07c12.834 2.731 11.154-1.827 13.509.244 3.595 3.162-4.113 41.385-5.293 49.861-1.179 8.476 10.891 7.568 14.226 6.905 3.306-.657 13.252-43.09 11.852-58.587-1.4-15.496-2.563-25.081-17.656-26.052-16.934-1.087-26.428 6.659-26.531 9.559z"></path><path d="M59.902 95.244c-1.625 10.731 1.654 21.424 14.757 20.753 13.102-.672 30.95-10.91 33.894-9.838 2.944 1.072 17.07 25.937 31.489 36.898 6.8 5.169 10.969-5.294 11.139-7.252.293-3.368-17.568-32.156-27.47-43.005-10.475-11.477-25.223-10.75-40.057-7.794-16.644 3.316-23.317 7.369-23.752 10.238z" data-color="1" class="icon1"></path><path d="M78.784 29.157s-1.391-1.797-.614-4.032c.318-.914 1.998-2.41 2.882-3.229 2.94-2.723 5.899.434 6.379 1.128.223.323-3.5 4.637-5.619 5.992-.828.531-2.822 1.116-3.028.141z" data-color="4" class="aIptOCySncolors-3"></path><path opacity=".2" d="M78.784 29.157s-1.391-1.797-.614-4.032c.318-.914 1.998-2.41 2.882-3.229 2.94-2.723 5.899.434 6.379 1.128.223.323-3.5 4.637-5.619 5.992-.828.531-2.822 1.116-3.028.141z"></path><path d="M92.83 20.151c-3.959-1.078-13.123 3.733-17.604 10.896-2.691 4.302 1.009 4.376 1.009 4.376s3.431 1.035 9.895-3.536c7.497-5.3 10.026-10.831 6.7-11.736z" data-color="4" class="aIptOCySncolors-3"></path><path d="M127.919 80.727c1.848-6.131 2.674-17.511 1.375-25.581s-7.921-2.848-9.726 1.333c-1.805 4.181-17.389 15.766-13.7 27.443 2.184 6.913 17.907 10.551 22.051-3.195z" data-color="3" class="icon3"></path><path opacity=".15" d="M127.919 80.727c1.848-6.131 2.674-17.511 1.375-25.581s-7.921-2.848-9.726 1.333c-1.805 4.181-17.389 15.766-13.7 27.443 2.184 6.913 17.907 10.551 22.051-3.195z"></path><path d="M59.324 89.675c1.218-8.997 1.456-18.589 2.793-26.793 1.716-10.527.42-19.114 5.692-21.326 9.735-4.086 39.312-9.374 38.019 7.732-.146 1.934-6.324 39.194-6.324 39.194s-9.471-2.535-15.664-2.222c-10.391.525-26.807 20.333-24.516 3.415z" data-color="4" class="aIptOCySncolors-3"></path><path d="M99.503 88.483s6.178-37.261 6.324-39.194c.744-9.845-8.736-12.271-18.774-11.779.984 3.342 2.545 8.817 3.312 12.436.932 4.4 1.998 24.767 1.101 36.873a85.57 85.57 0 018.037 1.664z" data-color="4" class="aIptOCySncolors-3"></path><path opacity=".2" d="M99.503 88.483s6.178-37.261 6.324-39.194c.744-9.845-8.736-12.271-18.774-11.779.984 3.342 2.545 8.817 3.312 12.436.932 4.4 1.998 24.767 1.101 36.873a85.57 85.57 0 018.037 1.664z"></path><path d="M81.211 38.093s-2.817 1.677-3.441 2.986c-3.63 7.618 12.891 30.546 12.891 30.546s5.816-24.643.869-31.445c-1.736-2.388-10.319-2.087-10.319-2.087z" data-color="3" class="icon3"></path><path d="M107.33 80.197c4.331-2.309 9.686-7.082 6.831-16.213-.816-2.609-2.305-2.096-4.395-3.851-5.891-4.948-11.221-1.715-14.973 1.453-4.339 3.665-17.142.314-26.094 6.406-4.751 3.234-6.361 3.882-6.203 8.738.303 9.322 3.608 20.31 14.804 25.891 4.337 2.162 9.604 2.682 14.368-.533 8.976-6.056 10.653-19.22 15.662-21.891z" data-color="5" class="aIptOCySncolors-4"></path><path opacity=".2" d="M107.33 80.197c4.331-2.309 9.686-7.082 6.831-16.213-.816-2.609-2.305-2.096-4.395-3.851-5.891-4.948-11.221-1.715-14.973 1.453-4.339 3.665-17.142.314-26.094 6.406-4.751 3.234-6.361 3.882-6.203 8.738.303 9.322 3.608 20.31 14.804 25.891 4.337 2.162 9.604 2.682 14.368-.533 8.976-6.056 10.653-19.22 15.662-21.891z"></path><path d="M106.993 76.563c4.331-2.309 9.31-6.063 6.931-13.391a14.617 14.617 0 00-4.496-6.673c-5.891-4.948-11.221-1.715-14.973 1.453-4.339 3.665-17.142.314-26.094 6.406-4.751 3.234-6.012 8.316-5.854 13.171.303 9.322 5.946 17.697 14.455 21.458 4.432 1.959 9.604 2.682 14.368-.533 8.977-6.056 10.654-19.221 15.663-21.891z" data-color="5" class="aIptOCySncolors-4"></path><path opacity=".1" d="M106.993 76.563c4.331-2.309 9.31-6.063 6.931-13.391a14.617 14.617 0 00-4.496-6.673c-5.891-4.948-11.221-1.715-14.973 1.453-4.339 3.665-17.142.314-26.094 6.406-4.751 3.234-6.012 8.316-5.854 13.171.303 9.322 5.946 17.697 14.455 21.458 4.432 1.959 9.604 2.682 14.368-.533 8.977-6.056 10.654-19.221 15.663-21.891z"></path><path d="M103.278 71.625c0 4.984-4.029 9.025-8.998 9.025-4.97 0-8.998-4.04-8.998-9.025 0-4.984 4.029-9.025 8.998-9.025 4.97 0 8.998 4.04 8.998 9.025z" data-color="5" class="aIptOCySncolors-4"></path><path d="M101.016 71.625c0 3.731-3.016 6.756-6.736 6.756-3.72 0-6.736-3.025-6.736-6.756 0-3.731 3.016-6.756 6.736-6.756 3.72 0 6.736 3.025 6.736 6.756z" data-color="6" class="aIptOCySncolors-5"></path><path d="M99.502 71.625c0 2.893-2.338 5.238-5.222 5.238-2.884 0-5.222-2.345-5.222-5.238 0-2.893 2.338-5.238 5.222-5.238 2.884 0 5.222 2.345 5.222 5.238z" data-color="1" class="icon1"></path><path d="M83.259 88.75l-8.932-13.26 2.014-1.365 8.933 13.26-2.015 1.365z" data-color="1" class="icon1"></path><path d="M146.694 41.641a1.179 1.179 0 001.035-.805c.305-.923.312-1.981.216-2.903a4.672 4.672 0 00-2.454-3.643c-.817-.433-1.798-.822-2.766-.883a1.177 1.177 0 00-1.131.663c-.63 1.298-2.399 4.338-5.902 6.349-.675.387-44.221 29.849-44.221 29.849l3.017 4.478s43.521-29.498 44.131-29.981c3.167-2.51 6.639-3.022 8.075-3.124z" data-color="1" class="icon1"></path><path d="M96.418 93.462c-1.305-1.228-3.001-2.277-5.157-2.654-3.817-.665-6.29 2.036-7.634 4.762-.913-2.014-2.648-4.045-5.644-4.532-3.532-.563-6.853 1.055-8.871 2.378.456.486.93.955 1.426 1.403 1.757-1.094 4.41-2.296 7.133-1.852 4.377.711 4.841 5.705 4.859 5.915a.976.976 0 00.854.894l.048.005a.975.975 0 001.019-.763c.016-.072 1.63-7.133 6.474-6.285 1.763.308 3.168 1.211 4.256 2.268.434-.499.845-1.013 1.237-1.539z" data-color="5" class="aIptOCySncolors-4"></path><path d="M67.153 91.051c.404.556.834 1.094 1.284 1.615 2.116-.789 4.666-2.09 5.962-4.069.804-1.227 1.054-2.569.745-3.988-.882-4.047-4.062-5.721-6.592-6.242 1.923-2.393 5.274-7.092 4.583-10-.239-1.008-.912-1.754-1.945-2.158a9.774 9.774 0 00-4.321-.669 12.465 12.465 0 00-2.07 2.437c1.391-.507 3.404-.842 5.683.051.557.218.698.537.758.791.505 2.122-3.013 7.063-5.348 9.679a.978.978 0 00.744 1.628c.225-.004 5.529-.034 6.605 4.9.196.898.042 1.715-.469 2.496-1.131 1.733-3.676 2.874-5.619 3.529z" data-color="5" class="aIptOCySncolors-4"></path><path d="M78.703 74.542s1.926 2.752 1.196 4.234c-5.135 10.438-46.468 19.48-45.894-3.875.091-3.713 1.271-7.568 4.913-12.761 5.194 10.752 39.785 12.402 39.785 12.402z" data-color="3" class="icon3"></path><path d="M89.364 29.805s2.412-1.742-.256-4.134c-1.578-1.415-5.489 1.419-5.489 1.419s-4.426 2.532-1.279 5.527c.752.715 7.024-2.812 7.024-2.812z" data-color="1" class="icon1"></path><path d="M82.612 31.397l-1.707 7.698c.103 1.081 4.464 2.875 6.021 1.331.456-.452-.378-7.051-.378-7.051l-3.936-1.978z" data-color="2" class="icon2"></path><path d="M61.198 70.156c.25-2.505.539-4.946.919-7.273.561-3.444.801-6.677 1.053-9.55l7.452-2.415c-.001 0-1.718 14.511-9.424 19.238z" data-color="1" class="icon1"></path><path d="M84.103 30.595a3.984 3.984 0 01-.11-.829c-.022-.532-.177-1.317-.948-.897-1.121.612-.85 3.439.47 3.601.98.12.764-1.192.588-1.875z" data-color="2" class="icon2"></path><path opacity=".5" d="M86.989 37.749a71.008 71.008 0 00-.171-1.959l-3.199-.361c.001-.001.841 1.576 3.37 2.32z"></path><path d="M83.967 28.465l-1.229 4.348a2.757 2.757 0 002.081 3.23c1.16.265 1.903.236 3.364-.001 1.217-.198 1.797-1.401 1.732-3.008-.084-2.086-.752-3.983-1.167-4.978-.943-2.269-3.773-2.366-4.781.409z" data-color="2" class="icon2"></path><path d="M86.879 31.474s1.022.21 2.445-.025c0 0 .076.933-.476 1.28-.552.347-1.586-.154-1.969-1.255z" data-color="7" class="aIptOCySncolors-6"></path><path opacity=".2" d="M89.565 34.986c-.429-.005-.967-.032-1.379-.122-.807-.175-1.393.366-2.878-.059-1.036-.297-2.069-1.243-2.6-1.789a2.753 2.753 0 002.111 3.027c1.16.265 1.903.236 3.364-.001.637-.104 1.095-.488 1.382-1.056z"></path><path d="M70.892 42.003c-4.471-4.255-28.445 12.12-33.736 22.865-5.291 10.745 17.625 8.826 17.625 8.826s22.691-25.429 16.111-31.691z" data-color="3" class="icon3"></path><path d="M86.389 43.049s3.676 6.637 4.543 7.743c.867 1.106 1.47 2.514 2.206 1.718.735-.796 3.335-5.879 1.155-7.354-2.179-1.475-6.979-4.161-7.73-3.674-.751.487-.174 1.567-.174 1.567z" data-color="4" class="aIptOCySncolors-3"></path><path d="M84.972 42.206s-2.048 5.61-2.258 7.374c-.21 1.765-.709 4.372-.263 5.241.446.869 6.918.716 7.47.031.551-.685-2.743-10.065-2.612-10.934.131-.869-1.103-4.714-2.337-1.712z" data-color="4" class="aIptOCySncolors-3"></path><path d="M86.55 40.162s-4.043-1.395-4.941-2.719c-.17-.251-.058-1.299-.058-1.299s-2.036 3.023-1.793 3.649c.559 1.439 4.3 4.421 4.3 4.421l2.736-2.377 2.9.647s-1.585-3.891-1.889-4.215c-.304-.325-.828-.667-.828-.667s.167 2.184-.427 2.56z" data-color="7" class="aIptOCySncolors-6"></path><path d="M127.102 55.379s4.687-3.004 4.401-5.267c-.286-2.263-1.529-.077-2.717.454-1.187.531-4.302 1.518-5.527 3.588-1.225 2.07.308 3.416 3.843 1.225z" data-color="2" class="icon2"></path><path opacity=".3" d="M147.443 127.43c-1.619.028-3.343.047-5.147.051-10.346.022-3.395-3.751-13.418-7.381-4.159-1.506-7.915-3.366-10.907-5.032-.007-4.225-.773-8.211-3.43-9.296-6.254-2.554-12.328 1.987-12.328 1.987l14.379 19.193s.499-4.894.82-9.608c5.993 8.266 14.492 19.527 22.63 25.714 6.8 5.169 10.969-5.294 11.139-7.252.086-.985-1.378-4.137-3.738-8.376z"></path><path opacity=".15" d="M70.892 42.003a2.221 2.221 0 00-.69-.436c-2.531 2.4-7.622 7.669-10.685 13.854-4.197 8.477-9.047 11.071-10.987 14.152-1.07 1.699 2.934 2.619 7.507 2.673 4.67-5.475 20.488-24.882 14.855-30.243z"></path><path opacity=".15" d="M79.9 78.777c.583-1.184-.527-3.174-.998-3.929-7.203.911-8.865 6.59-8.865 6.59s-8.25-.353-18.555.782-7.316.649-11.843-3.838c-2.218-2.199-3.426-6.527-4.082-10.371-1.069 2.503-1.498 4.722-1.552 6.89-.573 23.356 40.759 14.314 45.895 3.876z"></path><path d="M77.776 74.734l4.546-1.096a4.13 4.13 0 011.87-.015c1.317.295 3.575.9 4.287 1.71 1.027 1.167-1.786.531-1.786.531s2.126 1.379 2.866 2.387c.741 1.008-1.322.849-1.322.849s.226.69-.098.902c-.325.212-5.191-.084-5.72-.281-.529-.197-6.136.97-6.559-.781-.422-1.749 1.916-4.206 1.916-4.206z" data-color="2" class="icon2"></path><path opacity=".3" d="M86.389 43.049s3.676 6.637 4.543 7.743c.867 1.106 1.47 2.514 2.206 1.718.735-.796 3.335-5.879 1.155-7.354-2.179-1.475-6.979-4.161-7.73-3.674-.751.487-.174 1.567-.174 1.567z"></path></g></g>
</svg>
</g><g opacity="1" transform="rotate(0 43.209 428.2735)">
<svg width="392.7256" height="21.2161" x="43.209" y="428.2735" version="1.1" preserveAspectRatio="none" viewBox="1.76 -29.72 700.6 37.84">
  <g transform="matrix(1 0 0 1 0 0)" class="text"><path id="id-6izo4zJp36" d="M11 0.32Q8.92 0.32 6.56 0.14Q4.20-0.04 2.40-0.32L2.40-0.32L2.40-4.52Q6.88-4.08 9.52-4.08L9.52-4.08Q11.32-4.08 12.32-4.28Q13.32-4.48 13.80-4.92L13.80-4.92Q14.28-5.32 14.40-5.96Q14.52-6.60 14.52-7.80L14.52-7.80Q14.52-9.28 14.34-9.92Q14.16-10.56 13.64-10.86Q13.12-11.16 11.88-11.36L11.88-11.36L6.80-12.08Q3.92-12.44 2.84-14.30Q1.76-16.16 1.76-19.68L1.76-19.68Q1.76-23.04 2.86-24.82Q3.96-26.60 5.90-27.22Q7.84-27.84 10.84-27.84L10.84-27.84Q12.88-27.84 14.96-27.62Q17.04-27.40 18.44-27.08L18.44-27.08L18.44-22.96Q15.56-23.44 12.08-23.44L12.08-23.44Q10.32-23.44 9.30-23.28Q8.28-23.12 7.76-22.76L7.76-22.76Q7.20-22.40 7.04-21.78Q6.88-21.16 6.88-19.92L6.88-19.92Q6.88-18.56 7.04-17.96Q7.20-17.36 7.68-17.12Q8.16-16.88 9.32-16.72L9.32-16.72L14.44-16.04Q16.12-15.80 17.22-15.14Q18.32-14.48 18.96-13L18.96-13Q19.64-11.32 19.64-8.28L19.64-8.28Q19.64-4.64 18.62-2.76Q17.60-0.88 15.78-0.28Q13.96 0.32 11 0.32L11 0.32Z M34 0.32Q30.08 0.32 28.36-0.58Q26.64-1.48 26.16-3.54Q25.68-5.60 25.68-10.20L25.68-10.20Q25.68-14.84 26.16-16.90Q26.64-18.96 28.36-19.84Q30.08-20.72 34-20.72L34-20.72Q37.88-20.72 39.60-19.84Q41.32-18.96 41.80-16.88Q42.28-14.80 42.28-10.20L42.28-10.20Q42.28-5.60 41.80-3.54Q41.32-1.48 39.60-0.58Q37.88 0.32 34 0.32L34 0.32ZM34-3.72Q35.76-3.72 36.44-4.12Q37.12-4.52 37.28-5.72Q37.44-6.92 37.44-10.20L37.44-10.20Q37.44-13.52 37.28-14.70Q37.12-15.88 36.46-16.28Q35.80-16.68 34-16.68L34-16.68Q32.20-16.68 31.52-16.28Q30.84-15.88 30.68-14.70Q30.52-13.52 30.52-10.20L30.52-10.20Q30.52-6.92 30.68-5.72Q30.84-4.52 31.52-4.12Q32.20-3.72 34-3.72L34-3.72Z M60.20 0L60.20-11Q60.20-13.68 60.02-14.72Q59.84-15.76 59.24-16.08Q58.64-16.40 57.16-16.40L57.16-16.40Q55.64-16.40 54.94-15.86Q54.24-15.32 54.02-14.14Q53.80-12.96 53.80-10.56L53.80-10.56L53.80 0L49 0L49-20.40L53.48-20.40L53.64-17.84L53.92-17.84Q54.56-19.32 55.92-20.02Q57.28-20.72 59.40-20.72L59.40-20.72Q61.76-20.72 62.96-19.90Q64.16-19.08 64.58-17.46Q65-15.84 65-13.04L65-13.04L65 0L60.20 0Z M79.36 8.12Q77.72 8.12 75.94 8Q74.16 7.88 73.08 7.68L73.08 7.68L73.08 3.96Q75.88 4.08 78.24 4.08L78.24 4.08Q80.68 4.08 81.68 3.70Q82.68 3.32 82.98 2.26Q83.28 1.20 83.28-1.36L83.28-1.36L83.28-2.52L83.00-2.52Q82.36-1.12 81.08-0.54Q79.80 0.04 77.92 0.04L77.92 0.04Q75.52 0.04 74.20-0.88Q72.88-1.80 72.30-4Q71.72-6.20 71.72-10.24L71.72-10.24Q71.72-14.36 72.32-16.60Q72.92-18.84 74.26-19.78Q75.60-20.72 77.96-20.72L77.96-20.72Q81.92-20.72 83.16-17.84L83.16-17.84L83.44-17.84L83.60-20.40L88.08-20.40L88.08-2.48Q88.08 1.72 87.54 3.84Q87.00 5.96 85.16 7.04Q83.32 8.12 79.36 8.12L79.36 8.12ZM79.96-4.16Q81.16-4.16 81.82-4.50Q82.48-4.84 82.80-5.68L82.80-5.68Q83.08-6.36 83.18-7.44Q83.28-8.52 83.28-10.28L83.28-10.28Q83.28-13.56 82.84-14.68L82.84-14.68Q82.52-15.64 81.86-16.02Q81.20-16.40 79.96-16.40L79.96-16.40Q78.32-16.40 77.66-16.04Q77.00-15.68 76.78-14.48Q76.56-13.28 76.56-10.28L76.56-10.28Q76.56-7.32 76.78-6.12Q77.00-4.92 77.66-4.54Q78.32-4.16 79.96-4.16L79.96-4.16Z M105.60 0.32Q103.80 0.32 102.42-0.30Q101.04-0.92 100.36-2.52L100.36-2.52L100.08-2.52L99.92 0L95.44 0L95.44-29.72L100.24-29.72L100.24-18.16L100.52-18.16Q101.24-19.56 102.54-20.14Q103.84-20.72 105.72-20.72L105.72-20.72Q108.04-20.72 109.34-19.76Q110.64-18.80 111.22-16.54Q111.80-14.28 111.80-10.20L111.80-10.20Q111.80-6.08 111.20-3.82Q110.60-1.56 109.28-0.62Q107.96 0.32 105.60 0.32L105.60 0.32ZM103.60-3.96Q105.24-3.96 105.90-4.34Q106.56-4.72 106.78-5.94Q107.00-7.16 107.00-10.20L107.00-10.20Q107.00-13.20 106.78-14.42Q106.56-15.64 105.90-16.02Q105.24-16.40 103.60-16.40L103.60-16.40Q102.44-16.40 101.80-16.12Q101.16-15.84 100.84-15.12L100.84-15.12Q100.48-14.44 100.36-13.28Q100.24-12.12 100.24-10.20L100.24-10.20Q100.24-8.28 100.36-7.18Q100.48-6.08 100.80-5.40L100.80-5.40Q101.12-4.60 101.76-4.28Q102.40-3.96 103.60-3.96L103.60-3.96Z M123.44-25.16L118.52-25.16L118.52-29.72L123.44-29.72L123.44-25.16ZM123.40 0L118.56 0L118.56-20.40L123.40-20.40L123.40 0Z M130.76 0L130.76-20.40L135.24-20.40L135.40-16.88L135.72-16.88Q136.36-19.04 137.74-19.88Q139.12-20.72 141.44-20.72L141.44-20.72L141.44-15.88Q139.16-15.88 137.90-15.20Q136.64-14.52 136.10-13Q135.56-11.48 135.56-8.80L135.56-8.80L135.56 0L130.76 0Z M152.48 0.32Q150.12 0.32 148.80-0.60Q147.48-1.52 146.88-3.78Q146.28-6.04 146.28-10.16L146.28-10.16Q146.28-14.24 146.86-16.50Q147.44-18.76 148.74-19.74Q150.04-20.72 152.36-20.72L152.36-20.72Q154.28-20.72 155.56-20.14Q156.84-19.56 157.56-18.16L157.56-18.16L157.84-18.16L157.84-29.72L162.64-29.72L162.64 0L158.16 0L158.00-2.52L157.72-2.52Q156.56 0.32 152.48 0.32L152.48 0.32ZM154.52-3.96Q155.76-3.96 156.42-4.32Q157.08-4.68 157.40-5.52L157.40-5.52Q157.64-6.24 157.74-7.34Q157.84-8.44 157.84-10.20L157.84-10.20Q157.84-11.84 157.78-12.82Q157.72-13.80 157.48-14.48L157.48-14.48Q157.20-15.52 156.52-15.96Q155.84-16.40 154.52-16.40L154.52-16.40Q152.88-16.40 152.22-16.02Q151.56-15.64 151.34-14.42Q151.12-13.20 151.12-10.20L151.12-10.20Q151.12-7.16 151.34-5.94Q151.56-4.72 152.22-4.34Q152.88-3.96 154.52-3.96L154.52-3.96Z M176.52 0.32Q174.92 0.32 173.00 0.16Q171.08 0 169.64-0.24L169.64-0.24L169.64-4.04Q172.60-3.68 175.48-3.68L175.48-3.68Q177.00-3.68 177.74-3.88Q178.48-4.08 178.70-4.52Q178.92-4.96 178.92-5.88L178.92-5.88Q178.92-6.84 178.78-7.24Q178.64-7.64 178.28-7.80Q177.92-7.96 176.96-8.08L176.96-8.08L172.84-8.64Q170.64-8.92 169.86-10.28Q169.08-11.64 169.08-14.60L169.08-14.60Q169.08-17.08 169.98-18.40Q170.88-19.72 172.48-20.22Q174.08-20.72 176.52-20.72L176.52-20.72Q178.04-20.72 179.74-20.54Q181.44-20.36 182.52-20.08L182.52-20.08L182.52-16.32Q179.84-16.72 177.12-16.72L177.12-16.72Q175.76-16.72 175.06-16.58Q174.36-16.44 174.06-15.98Q173.76-15.52 173.76-14.60L173.76-14.60Q173.76-13.72 173.86-13.34Q173.96-12.96 174.30-12.80Q174.64-12.64 175.48-12.52L175.48-12.52L179.64-12Q181.00-11.80 181.82-11.32Q182.64-10.84 183.10-9.62Q183.56-8.40 183.56-6.08L183.56-6.08Q183.56-3.48 182.74-2.08Q181.92-0.68 180.42-0.18Q178.92 0.32 176.52 0.32L176.52 0.32Z M216.20 0L201.40 0L201.40-27.52L206.48-27.52L206.48-4.56L216.20-4.56L216.20 0Z M226.80-25.16L221.88-25.16L221.88-29.72L226.80-29.72L226.80-25.16ZM226.76 0L221.92 0L221.92-20.40L226.76-20.40L226.76 0Z M235.72 0L235.72-16.36L232.44-16.36L232.44-20.40L235.72-20.40L235.72-22.24Q235.72-25.80 236.48-27.32Q237.24-28.84 239.00-29.26Q240.76-29.68 244.84-29.68L244.84-29.68L244.84-26.08Q242.84-26.08 242.00-25.90Q241.16-25.72 240.86-25.14Q240.56-24.56 240.56-23.16L240.56-23.16L240.56-20.40L244.84-20.40L244.84-16.36L240.56-16.36L240.56 0L235.72 0Z M265.76-10.16L265.76-8.64L254.60-8.64Q254.60-6.24 254.86-5.30Q255.12-4.36 256.10-4.02Q257.08-3.68 259.52-3.68L259.52-3.68Q262.12-3.68 265.12-4L265.12-4L265.12-0.28Q263.96 0 262.08 0.16Q260.20 0.32 258.44 0.32L258.44 0.32Q254.48 0.32 252.66-0.70Q250.84-1.72 250.30-3.82Q249.76-5.92 249.76-10.16L249.76-10.16Q249.76-14.28 250.30-16.42Q250.84-18.56 252.60-19.64Q254.36-20.72 258.08-20.72L258.08-20.72Q261.72-20.72 263.34-19.68Q264.96-18.64 265.36-16.58Q265.76-14.52 265.76-10.16L265.76-10.16ZM258.00-16.76Q256.44-16.76 255.76-16.40Q255.08-16.04 254.86-15.08Q254.64-14.12 254.60-11.92L254.60-11.92L261.20-11.92Q261.20-14.12 260.94-15.12Q260.68-16.12 260.02-16.44Q259.36-16.76 258.00-16.76L258.00-16.76Z M304.32 0L299.08 0L297.40-6.16L288.40-6.16L286.76 0L281.64 0L289.44-27.52L296.52-27.52L304.32 0ZM296.20-10.56L293.00-22.68L292.80-22.68L289.56-10.56L296.20-10.56Z M321.96-0.28Q320.96 0 319.52 0.16Q318.08 0.32 316.80 0.32L316.80 0.32Q313.36 0.32 311.72-0.80Q310.08-1.92 309.60-4.06Q309.12-6.20 309.12-10.20L309.12-10.20Q309.12-14.12 309.66-16.32Q310.20-18.52 311.82-19.62Q313.44-20.72 316.72-20.72L316.72-20.72Q318.08-20.72 319.50-20.56Q320.92-20.40 321.80-20.12L321.80-20.12L321.80-16.36Q320.08-16.68 318.00-16.68L318.00-16.68Q316.12-16.68 315.30-16.22Q314.48-15.76 314.22-14.46Q313.96-13.16 313.96-10.20L313.96-10.20Q313.96-7.20 314.24-5.90Q314.52-4.60 315.34-4.16Q316.16-3.72 318.04-3.72L318.04-3.72Q320.12-3.72 321.96-4L321.96-4L321.96-0.28Z M332.76 0.32Q329.96 0.32 328.64-1.12Q327.32-2.56 327.32-5.76L327.32-5.76Q327.32-8.16 327.84-9.50Q328.36-10.84 329.62-11.46Q330.88-12.08 333.12-12.08L333.12-12.08Q334.92-12.08 338.44-11.92L338.44-11.92L338.44-12.80Q338.44-14.68 338.10-15.46Q337.76-16.24 336.86-16.46Q335.96-16.68 333.76-16.68L333.76-16.68Q332.72-16.68 331.08-16.58Q329.44-16.48 328.44-16.36L328.44-16.36L328.44-20.12Q331.92-20.72 335.28-20.72L335.28-20.72Q338.68-20.72 340.38-19.92Q342.08-19.12 342.66-17.42Q343.24-15.72 343.24-12.56L343.24-12.56L343.24 0L338.76 0L338.60-2.48L338.32-2.48Q337.08 0.32 332.76 0.32L332.76 0.32ZM334.96-3.72Q336.08-3.72 336.74-3.94Q337.40-4.16 337.84-4.80L337.84-4.80Q338.44-5.72 338.44-8L338.44-8L338.44-8.80L334.44-8.80Q333.40-8.80 332.90-8.62Q332.40-8.44 332.20-7.90Q332.00-7.36 332.00-6.20L332.00-6.20Q332.00-5.12 332.22-4.60Q332.44-4.08 333.04-3.90Q333.64-3.72 334.96-3.72L334.96-3.72Z M356.16 0.32Q353.80 0.32 352.48-0.60Q351.16-1.52 350.56-3.78Q349.96-6.04 349.96-10.16L349.96-10.16Q349.96-14.24 350.54-16.50Q351.12-18.76 352.42-19.74Q353.72-20.72 356.04-20.72L356.04-20.72Q357.96-20.72 359.24-20.14Q360.52-19.56 361.24-18.16L361.24-18.16L361.52-18.16L361.52-29.72L366.32-29.72L366.32 0L361.84 0L361.68-2.52L361.40-2.52Q360.24 0.32 356.16 0.32L356.16 0.32ZM358.20-3.96Q359.44-3.96 360.10-4.32Q360.76-4.68 361.08-5.52L361.08-5.52Q361.32-6.24 361.42-7.34Q361.52-8.44 361.52-10.20L361.52-10.20Q361.52-11.84 361.46-12.82Q361.40-13.80 361.16-14.48L361.16-14.48Q360.88-15.52 360.20-15.96Q359.52-16.40 358.20-16.40L358.20-16.40Q356.56-16.40 355.90-16.02Q355.24-15.64 355.02-14.42Q354.80-13.20 354.80-10.20L354.80-10.20Q354.80-7.16 355.02-5.94Q355.24-4.72 355.90-4.34Q356.56-3.96 358.20-3.96L358.20-3.96Z M389.08-10.16L389.08-8.64L377.92-8.64Q377.92-6.24 378.18-5.30Q378.44-4.36 379.42-4.02Q380.40-3.68 382.84-3.68L382.84-3.68Q385.44-3.68 388.44-4L388.44-4L388.44-0.28Q387.28 0 385.40 0.16Q383.52 0.32 381.76 0.32L381.76 0.32Q377.80 0.32 375.98-0.70Q374.16-1.72 373.62-3.82Q373.08-5.92 373.08-10.16L373.08-10.16Q373.08-14.28 373.62-16.42Q374.16-18.56 375.92-19.64Q377.68-20.72 381.40-20.72L381.40-20.72Q385.04-20.72 386.66-19.68Q388.28-18.64 388.68-16.58Q389.08-14.52 389.08-10.16L389.08-10.16ZM381.32-16.76Q379.76-16.76 379.08-16.40Q378.40-16.04 378.18-15.08Q377.96-14.12 377.92-11.92L377.92-11.92L384.52-11.92Q384.52-14.12 384.26-15.12Q384-16.12 383.34-16.44Q382.68-16.76 381.32-16.76L381.32-16.76Z M417.08 0L417.08-11Q417.08-13.64 416.90-14.70Q416.72-15.76 416.18-16.08Q415.64-16.40 414.28-16.40L414.28-16.40Q412.92-16.40 412.30-15.88Q411.68-15.36 411.48-14.18Q411.28-13 411.28-10.56L411.28-10.56L411.28 0L406.48 0L406.48-11Q406.48-13.64 406.30-14.70Q406.12-15.76 405.58-16.08Q405.04-16.40 403.68-16.40L403.68-16.40Q402.32-16.40 401.68-15.86Q401.04-15.32 400.84-14.14Q400.64-12.96 400.64-10.56L400.64-10.56L400.64 0L395.84 0L395.84-20.40L400.32-20.40L400.48-17.84L400.76-17.84Q401.40-19.32 402.68-20.02Q403.96-20.72 406-20.72L406-20.72Q408.16-20.72 409.30-20.02Q410.44-19.32 410.88-17.84L410.88-17.84L411.16-17.84Q411.80-19.32 413.12-20.02Q414.44-20.72 416.52-20.72L416.52-20.72Q418.72-20.72 419.88-19.90Q421.04-19.08 421.46-17.48Q421.88-15.88 421.88-13.12L421.88-13.12L421.88 0L417.08 0Z M436.64 8.12Q432.96 8.12 430.44 7.72L430.44 7.72L430.44 4Q431.32 4 431.72 4.04L431.72 4.04L435.56 4.08Q437.92 4.08 438.92 3.68Q439.92 3.28 440.18 2.26Q440.44 1.24 440.44-1.24L440.44-1.24L440.44-2.60L440.16-2.60Q439.52-1.24 438.24-0.58Q436.96 0.08 434.88 0.08L434.88 0.08Q432.44 0.08 431.24-0.78Q430.04-1.64 429.64-3.34Q429.24-5.04 429.24-8.08L429.24-8.08L429.24-20.40L434.04-20.40L434.04-9.60Q434.04-6.92 434.22-5.86Q434.40-4.80 435-4.48Q435.60-4.16 437.08-4.16L437.08-4.16Q438.60-4.16 439.30-4.70Q440-5.24 440.22-6.42Q440.44-7.60 440.44-10L440.44-10L440.44-20.40L445.24-20.40L445.24-2.44Q445.24 1.72 444.70 3.86Q444.16 6 442.34 7.06Q440.52 8.12 436.64 8.12L436.64 8.12Z M465.24 0L465.24-16.36L461.96-16.36L461.96-20.40L465.24-20.40L465.24-22.24Q465.24-25.80 466.00-27.32Q466.76-28.84 468.52-29.26Q470.28-29.68 474.36-29.68L474.36-29.68L474.36-26.08Q472.36-26.08 471.52-25.90Q470.68-25.72 470.38-25.14Q470.08-24.56 470.08-23.16L470.08-23.16L470.08-20.40L474.36-20.40L474.36-16.36L470.08-16.36L470.08 0L465.24 0Z M487.60 0.32Q483.68 0.32 481.96-0.58Q480.24-1.48 479.76-3.54Q479.28-5.60 479.28-10.20L479.28-10.20Q479.28-14.84 479.76-16.90Q480.24-18.96 481.96-19.84Q483.68-20.72 487.60-20.72L487.60-20.72Q491.48-20.72 493.20-19.84Q494.92-18.96 495.40-16.88Q495.88-14.80 495.88-10.20L495.88-10.20Q495.88-5.60 495.40-3.54Q494.92-1.48 493.20-0.58Q491.48 0.32 487.60 0.32L487.60 0.32ZM487.60-3.72Q489.36-3.72 490.04-4.12Q490.72-4.52 490.88-5.72Q491.04-6.92 491.04-10.20L491.04-10.20Q491.04-13.52 490.88-14.70Q490.72-15.88 490.06-16.28Q489.40-16.68 487.60-16.68L487.60-16.68Q485.80-16.68 485.12-16.28Q484.44-15.88 484.28-14.70Q484.12-13.52 484.12-10.20L484.12-10.20Q484.12-6.92 484.28-5.72Q484.44-4.52 485.12-4.12Q485.80-3.72 487.60-3.72L487.60-3.72Z M502.60 0L502.60-20.40L507.08-20.40L507.24-16.88L507.56-16.88Q508.20-19.04 509.58-19.88Q510.96-20.72 513.28-20.72L513.28-20.72L513.28-15.88Q511.00-15.88 509.74-15.20Q508.48-14.52 507.94-13Q507.40-11.48 507.40-8.80L507.40-8.80L507.40 0L502.60 0Z M536.40 0L531.60 0L531.60-16.36L528.28-16.36L528.28-20.40L531.60-20.40L531.60-26.32L536.40-26.32L536.40-20.40L540.40-20.40L540.40-16.36L536.40-16.36L536.40 0Z M557.28 0L557.28-11Q557.28-13.68 557.10-14.72Q556.92-15.76 556.32-16.08Q555.72-16.40 554.24-16.40L554.24-16.40Q552.72-16.40 552.02-15.86Q551.32-15.32 551.10-14.14Q550.88-12.96 550.88-10.56L550.88-10.56L550.88 0L546.08 0L546.08-29.72L550.88-29.72L550.88-18L551.16-18Q551.80-19.40 553.12-20.06Q554.44-20.72 556.44-20.72L556.44-20.72Q558.80-20.72 560.02-19.90Q561.24-19.08 561.66-17.48Q562.08-15.88 562.08-13.08L562.08-13.08L562.08 0L557.28 0Z M584.80-10.16L584.80-8.64L573.64-8.64Q573.64-6.24 573.90-5.30Q574.16-4.36 575.14-4.02Q576.12-3.68 578.56-3.68L578.56-3.68Q581.16-3.68 584.16-4L584.16-4L584.16-0.28Q583.00 0 581.12 0.16Q579.24 0.32 577.48 0.32L577.48 0.32Q573.52 0.32 571.70-0.70Q569.88-1.72 569.34-3.82Q568.80-5.92 568.80-10.16L568.80-10.16Q568.80-14.28 569.34-16.42Q569.88-18.56 571.64-19.64Q573.40-20.72 577.12-20.72L577.12-20.72Q580.76-20.72 582.38-19.68Q584.00-18.64 584.40-16.58Q584.80-14.52 584.80-10.16L584.80-10.16ZM577.04-16.76Q575.48-16.76 574.80-16.40Q574.12-16.04 573.90-15.08Q573.68-14.12 573.64-11.92L573.64-11.92L580.24-11.92Q580.24-14.12 579.98-15.12Q579.72-16.12 579.06-16.44Q578.40-16.76 577.04-16.76L577.04-16.76Z M613.48 0L608.36 0L608.36-9.76L600.24-27.52L605.56-27.52L610.92-15.24L611.20-15.24L616.48-27.52L621.64-27.52L613.48-9.76L613.48 0Z M631.92 0.32Q628.00 0.32 626.28-0.58Q624.56-1.48 624.08-3.54Q623.60-5.60 623.60-10.20L623.60-10.20Q623.60-14.84 624.08-16.90Q624.56-18.96 626.28-19.84Q628.00-20.72 631.92-20.72L631.92-20.72Q635.80-20.72 637.52-19.84Q639.24-18.96 639.72-16.88Q640.20-14.80 640.20-10.20L640.20-10.20Q640.20-5.60 639.72-3.54Q639.24-1.48 637.52-0.58Q635.80 0.32 631.92 0.32L631.92 0.32ZM631.92-3.72Q633.68-3.72 634.36-4.12Q635.04-4.52 635.20-5.72Q635.36-6.92 635.36-10.20L635.36-10.20Q635.36-13.52 635.20-14.70Q635.04-15.88 634.38-16.28Q633.72-16.68 631.92-16.68L631.92-16.68Q630.12-16.68 629.44-16.28Q628.76-15.88 628.60-14.70Q628.44-13.52 628.44-10.20L628.44-10.20Q628.44-6.92 628.60-5.72Q628.76-4.52 629.44-4.12Q630.12-3.72 631.92-3.72L631.92-3.72Z M658.44 0L658.28-2.56L658.00-2.56Q657.36-1.08 656.00-0.38Q654.64 0.32 652.52 0.32L652.52 0.32Q650.16 0.32 648.96-0.50Q647.76-1.32 647.34-2.94Q646.92-4.56 646.92-7.36L646.92-7.36L646.92-20.40L651.72-20.40L651.72-9.40Q651.72-6.72 651.90-5.68Q652.08-4.64 652.68-4.32Q653.28-4 654.76-4L654.76-4Q656.28-4 656.98-4.54Q657.68-5.08 657.90-6.26Q658.12-7.44 658.12-9.84L658.12-9.84L658.12-20.40L662.92-20.40L662.92 0L658.44 0Z M676.68 0L671.88 0L671.88-16.36L668.56-16.36L668.56-20.40L671.88-20.40L671.88-26.32L676.68-26.32L676.68-20.40L680.68-20.40L680.68-16.36L676.68-16.36L676.68 0Z M697.56 0L697.56-11Q697.56-13.68 697.38-14.72Q697.20-15.76 696.60-16.08Q696.00-16.40 694.52-16.40L694.52-16.40Q693.00-16.40 692.30-15.86Q691.60-15.32 691.38-14.14Q691.16-12.96 691.16-10.56L691.16-10.56L691.16 0L686.36 0L686.36-29.72L691.16-29.72L691.16-18L691.44-18Q692.08-19.40 693.40-20.06Q694.72-20.72 696.72-20.72L696.72-20.72Q699.08-20.72 700.30-19.90Q701.52-19.08 701.94-17.48Q702.36-15.88 702.36-13.08L702.36-13.08L702.36 0L697.56 0Z"/></g>
</svg>
</g><g opacity="1" transform="rotate(0 57.1438 350.9455)">
<svg width="364.856" height="60.6174" x="57.1438" y="350.9455" version="1.1" preserveAspectRatio="none" viewBox="2.4023 -27.3242 167.6367 27.8516">
  <g transform="matrix(1 0 0 1 0 0)" class="companyName"><path id="id-D6z1nYkh8" d="M4.61 0L2.40 0L2.40-9.65L4.61-9.65L4.61-6.88Q4.61-5.72 5.19-4.89Q5.76-4.06 6.72-3.49Q7.68-2.91 8.92-2.56Q10.16-2.21 11.50-2.01Q12.85-1.82 14.19-1.75Q15.53-1.68 16.68-1.68L16.68-1.68Q18.98-1.68 20.98-1.93Q22.97-2.19 24.44-2.77Q25.92-3.36 26.76-4.31Q27.60-5.25 27.60-6.64L27.60-6.64Q27.60-7.85 26.90-8.72Q26.21-9.59 25.01-10.22Q23.81-10.86 22.22-11.30Q20.63-11.74 18.83-12.10Q17.03-12.46 15.14-12.80Q13.24-13.14 11.45-13.56Q9.65-13.98 8.06-14.55Q6.46-15.12 5.26-15.92Q4.06-16.72 3.37-17.82Q2.68-18.93 2.68-20.45L2.68-20.45Q2.68-21.80 3.21-22.84Q3.75-23.89 4.68-24.65Q5.61-25.41 6.86-25.93Q8.11-26.45 9.50-26.75Q10.90-27.05 12.39-27.19Q13.89-27.32 15.31-27.32L15.31-27.32Q17.32-27.32 19.07-27.07Q20.82-26.82 22.23-26.42Q23.63-26.02 24.65-25.53Q25.66-25.04 26.23-24.55L26.23-24.55L26.23-26.84L28.44-26.84L28.44-18.40L26.23-18.40L26.23-20.12Q26.23-21.19 25.54-22.10Q24.84-23.01 23.50-23.68Q22.15-24.36 20.16-24.74Q18.16-25.12 15.57-25.12L15.57-25.12Q13.20-25.12 11.31-24.85Q9.41-24.59 8.08-24.03Q6.74-23.48 6.03-22.61Q5.31-21.74 5.31-20.53L5.31-20.53Q5.31-19.41 6.02-18.62Q6.72-17.83 7.91-17.25Q9.10-16.66 10.70-16.23Q12.30-15.80 14.10-15.43Q15.90-15.06 17.79-14.70Q19.69-14.34 21.48-13.88Q23.28-13.42 24.88-12.83Q26.48-12.25 27.68-11.41Q28.87-10.57 29.57-9.44Q30.27-8.32 30.27-6.80L30.27-6.80Q30.27-5.29 29.68-4.17Q29.08-3.05 28.08-2.24Q27.07-1.43 25.71-0.89Q24.36-0.35 22.84-0.04Q21.33 0.27 19.73 0.40Q18.13 0.53 16.60 0.53L16.60 0.53Q14.47 0.53 12.63 0.32Q10.78 0.12 9.26-0.26Q7.73-0.64 6.56-1.15Q5.39-1.66 4.61-2.29L4.61-2.29L4.61 0Z M34.92-2.07L34.92-2.07Q34.92-2.56 35.10-2.98Q35.27-3.40 35.58-3.71Q35.88-4.02 36.30-4.21Q36.72-4.39 37.21-4.39L37.21-4.39Q37.68-4.39 38.10-4.21Q38.52-4.02 38.83-3.71Q39.14-3.40 39.33-2.98Q39.51-2.56 39.51-2.07L39.51-2.07Q39.51-1.60 39.33-1.18Q39.14-0.76 38.83-0.46Q38.52-0.16 38.10 0.02Q37.68 0.20 37.21 0.20L37.21 0.20Q36.72 0.20 36.30 0.02Q35.88-0.16 35.58-0.46Q35.27-0.76 35.10-1.18Q34.92-1.60 34.92-2.07Z M43.52-24.65L43.52-26.84L57.15-26.84L57.15-24.65L51.56-24.65L51.56-2.29L71.00-2.29L71.00-8.44L73.20-8.44L73.20 0L43.52 0L43.52-2.21L49.12-2.21L49.12-24.65L43.52-24.65Z M77.19-2.07L77.19-2.07Q77.19-2.56 77.36-2.98Q77.54-3.40 77.84-3.71Q78.14-4.02 78.56-4.21Q78.98-4.39 79.47-4.39L79.47-4.39Q79.94-4.39 80.36-4.21Q80.78-4.02 81.09-3.71Q81.41-3.40 81.59-2.98Q81.78-2.56 81.78-2.07L81.78-2.07Q81.78-1.60 81.59-1.18Q81.41-0.76 81.09-0.46Q80.78-0.16 80.36 0.02Q79.94 0.20 79.47 0.20L79.47 0.20Q78.98 0.20 78.56 0.02Q78.14-0.16 77.84-0.46Q77.54-0.76 77.36-1.18Q77.19-1.60 77.19-2.07Z M92.85-24.65L92.85-26.84L104.30-26.84L117.19-2.21L122.34-2.21L122.34 0L108.69 0L108.69-2.21L114.49-2.21L110.94-9.12L94.79-9.12L91.17-2.21L97.01-2.21L97.01 0L83.38 0L83.38-2.21L88.54-2.21L100.25-24.65L92.85-24.65ZM109.75-11.33L102.85-24.47L95.98-11.33L109.75-11.33Z M123.95-2.07L123.95-2.07Q123.95-2.56 124.12-2.98Q124.30-3.40 124.60-3.71Q124.90-4.02 125.32-4.21Q125.74-4.39 126.23-4.39L126.23-4.39Q126.70-4.39 127.12-4.21Q127.54-4.02 127.85-3.71Q128.16-3.40 128.35-2.98Q128.54-2.56 128.54-2.07L128.54-2.07Q128.54-1.60 128.35-1.18Q128.16-0.76 127.85-0.46Q127.54-0.16 127.12 0.02Q126.70 0.20 126.23 0.20L126.23 0.20Q125.74 0.20 125.32 0.02Q124.90-0.16 124.60-0.46Q124.30-0.76 124.12-1.18Q123.95-1.60 123.95-2.07Z M130.94-24.65L130.94-26.84L144.57-26.84L144.57-24.65L139.45-24.65L148.61-13.40L157.70-24.65L152.62-24.65L152.62-26.84L166.25-26.84L166.25-24.65L160.63-24.65L149.82-11.37L149.82-2.21L155.82-2.21L155.82 0L141.39 0L141.39-2.21L147.38-2.21L147.38-11.37L136.58-24.65L130.94-24.65Z M165.45-2.07L165.45-2.07Q165.45-2.56 165.63-2.98Q165.80-3.40 166.10-3.71Q166.41-4.02 166.83-4.21Q167.25-4.39 167.73-4.39L167.73-4.39Q168.20-4.39 168.62-4.21Q169.04-4.02 169.36-3.71Q169.67-3.40 169.85-2.98Q170.04-2.56 170.04-2.07L170.04-2.07Q170.04-1.60 169.85-1.18Q169.67-0.76 169.36-0.46Q169.04-0.16 168.62 0.02Q168.20 0.20 167.73 0.20L167.73 0.20Q167.25 0.20 166.83 0.02Q166.41-0.16 166.10-0.46Q165.80-0.76 165.63-1.18Q165.45-1.60 165.45-2.07Z"/></g>
</svg>
</g><g opacity="1" transform="rotate(0 75.5536 41.5103)">
<svg width="98.1816" height="56.5495" x="75.5536" y="41.5103" version="1.1" preserveAspectRatio="none" viewBox="19.995262145996097 53.927433013916016 159.85671997070312 92.07257080078124">
  <g transform="matrix(1 0 0 1 0 0)"><g><path d="M125.5 138.9c-6.2 0-12.4-2.2-17.3-6.1-.5-.4-.5-1.1-.2-1.5.4-.5 1.1-.5 1.5-.2 5 4.1 11.6 6.1 18.1 5.5 6.5-.6 12.6-3.7 16.8-8.6.6-.6 1.5-1.7 1.9-2l.6-.3s2.5-.3 5.3-2.6c2.8-2.4 3.8-4.9 4.2-6.7 0-.2.2-.4.3-.6l6.1-5.8-6.6-2.1c-.3-.1-.5-.3-.6-.5-1.2-2.2-3.5-3.6-5.4-4.7-6.1-3.3-12-1.5-18.1 5.7-.4.5-1.1.5-1.5.1-.5-.4-.5-1.1-.1-1.5 6.8-8 13.8-10.1 20.8-6.2 2 1.1 4.5 2.7 6 5.1l7.9 2.5c.6.2.9.8.7 1.4-.1.2-.2.3-.3.5l-7.2 6.8c-.5 2.1-1.7 4.9-4.8 7.6-2.7 2.2-5.2 2.9-6.1 3-.4.4-1 1.1-1.5 1.6-4.6 5.3-11.3 8.7-18.3 9.3-.6.3-1.4.3-2.2.3z" data-color="1" class="aRkjzh-6nhcolors-0"></path><path d="M131.1 109.3c-.6 0-1-.4-1.1-1-.2-2.5-2.3-4.4-3.9-5.6-5.6-4.1-12.4-5-19.5-5.9-3.9-.5-8-1.1-11.8-2.2-4.5-1.3-8.1-3.4-10.8-6-3.5-3.5-5.9-7.5-6.9-11.3-.2-.6.2-1.2.8-1.3.6-.2 1.2.2 1.3.8.9 3.5 3.1 7.1 6.3 10.3 2.4 2.4 5.8 4.3 9.9 5.5 3.6 1.1 7.6 1.6 11.5 2.2 7.1 1 14.4 2 20.4 6.3 2 1.5 4.5 3.9 4.8 7.2.2.5-.3 1-1 1 .1 0 .1 0 0 0z" data-color="1" class="aRkjzh-6nhcolors-0"></path><path d="M146.1 101.6c-.6 0-1.1-.5-1.1-1.1 0-.4.2-.7.5-.9 5.4-3.2 9.3-8.5 12.4-13.2 4-6.1 7.8-12.4 11.4-18.8 2.2-3.9 4.5-7.9 7.4-11.4-8.5-.7-12.1 6.5-12.1 6.6-.2.4-.7.7-1.1.6-.1 0-9.3-1.3-13.4 5.4-.2.3-.6.6-1 .5-.5 0-11.1-.3-13.1 8.3-.1.5-.5.9-1.1.8-11.2-.5-12.1 6.1-12.6 9.7l-.1.4c-.1.6-.7 1-1.2.9-.6-.1-1-.6-.9-1.2l.1-.4c.4-3.2 1.6-11.6 13.7-11.6h.2c2.5-8.2 11.9-9 14.4-9.1 4.3-6.3 12.1-6.2 14.5-6 1.4-2.2 6.4-8.8 16-6.8.6.1 1 .7.8 1.3 0 .2-.1.4-.3.5-3.4 3.7-6 8.2-8.4 12.5-3.6 6.4-7.5 12.7-11.5 18.9-3.2 4.9-7.3 10.4-13.1 13.9 0 .1-.2.2-.4.2z" data-color="1" class="aRkjzh-6nhcolors-0"></path><path d="M64.4 146c-8 0-15.5-.9-21.9-2-7.2-1.3-15.4-3.3-22.1-8.7-.5-.4-.5-1.1-.2-1.5 0-.1.1-.1.2-.2.4-.3 10.1-8.1 20-2.9 5.4-6.4 12.1-8.6 19.9-6.3 1.2-3.3 3.3-5.8 6.1-7.2 2.9-1.5 6.5-1.9 9.9-1 1-2.2 2.9-4.1 5.2-5.2 3.2-1.5 7.1-1.7 10.6-.5.6.2.9.8.7 1.4-.2.6-.8.9-1.4.7h-.1c-3-1.1-6.2-.9-8.9.4-2.2 1.1-3.8 2.8-4.5 4.9-.2.6-.8.9-1.4.7-3.2-1-6.5-.8-9.2.6-2.6 1.3-4.4 3.8-5.4 7-.2.6-.8.9-1.4.7-11-3.6-16.7 3.1-18.6 5.4-.6.7-1.2 1.4-2 .9-7-4.1-14.3-.3-17.1 1.5 6.1 4.4 13.4 6.2 19.9 7.4 15.5 2.8 38.1 4.1 57.6-5.8 7.1-3.6 12.2-9 16.3-16.9.3-.5.9-.7 1.5-.5.5.3.7.9.5 1.5-4.3 8.3-9.7 14-17.2 17.8-12 5.8-25.1 7.8-37 7.8zm-23.3-14.9z" data-color="1" class="aRkjzh-6nhcolors-0"></path><path d="M77.4 91.6h-.1C71.1 91 63.4 86.2 61 77.2c-.1-.6.3-1.2.8-1.3.5-.1 1.1.2 1.2.7 2.1 8 9 12.3 14.4 12.9.6.1 1 .6 1 1.2 0 .5-.5.9-1 .9z" data-color="1" class="aRkjzh-6nhcolors-0"></path><path d="M72.1 100.5c-6.9 0-12.6-5-13.7-6.8-.3-.5-.2-1.2.3-1.5.5-.3 1.2-.2 1.5.3 1 1.6 8.4 7.9 16.1 5 .6-.2 1.2.1 1.4.6.2.6-.1 1.2-.6 1.4-1.6.7-3.3 1-5 1z" data-color="1" class="aRkjzh-6nhcolors-0"></path></g></g>
</svg>
</g><g opacity="1" transform="rotate(0 309.5087 41.5103)">
<svg width="98.1816" height="56.5495" x="309.5087" y="41.5103" version="1.1" preserveAspectRatio="none" viewBox="19.995262145996097 53.927433013916016 159.85671997070312 92.07257080078124">
  <g transform="matrix(-1 0 0 1 199.8472442626953 0)"><g><path d="M125.5 138.9c-6.2 0-12.4-2.2-17.3-6.1-.5-.4-.5-1.1-.2-1.5.4-.5 1.1-.5 1.5-.2 5 4.1 11.6 6.1 18.1 5.5 6.5-.6 12.6-3.7 16.8-8.6.6-.6 1.5-1.7 1.9-2l.6-.3s2.5-.3 5.3-2.6c2.8-2.4 3.8-4.9 4.2-6.7 0-.2.2-.4.3-.6l6.1-5.8-6.6-2.1c-.3-.1-.5-.3-.6-.5-1.2-2.2-3.5-3.6-5.4-4.7-6.1-3.3-12-1.5-18.1 5.7-.4.5-1.1.5-1.5.1-.5-.4-.5-1.1-.1-1.5 6.8-8 13.8-10.1 20.8-6.2 2 1.1 4.5 2.7 6 5.1l7.9 2.5c.6.2.9.8.7 1.4-.1.2-.2.3-.3.5l-7.2 6.8c-.5 2.1-1.7 4.9-4.8 7.6-2.7 2.2-5.2 2.9-6.1 3-.4.4-1 1.1-1.5 1.6-4.6 5.3-11.3 8.7-18.3 9.3-.6.3-1.4.3-2.2.3z" data-color="1" class="icon1"></path><path d="M131.1 109.3c-.6 0-1-.4-1.1-1-.2-2.5-2.3-4.4-3.9-5.6-5.6-4.1-12.4-5-19.5-5.9-3.9-.5-8-1.1-11.8-2.2-4.5-1.3-8.1-3.4-10.8-6-3.5-3.5-5.9-7.5-6.9-11.3-.2-.6.2-1.2.8-1.3.6-.2 1.2.2 1.3.8.9 3.5 3.1 7.1 6.3 10.3 2.4 2.4 5.8 4.3 9.9 5.5 3.6 1.1 7.6 1.6 11.5 2.2 7.1 1 14.4 2 20.4 6.3 2 1.5 4.5 3.9 4.8 7.2.2.5-.3 1-1 1 .1 0 .1 0 0 0z" data-color="1" class="icon1"></path><path d="M146.1 101.6c-.6 0-1.1-.5-1.1-1.1 0-.4.2-.7.5-.9 5.4-3.2 9.3-8.5 12.4-13.2 4-6.1 7.8-12.4 11.4-18.8 2.2-3.9 4.5-7.9 7.4-11.4-8.5-.7-12.1 6.5-12.1 6.6-.2.4-.7.7-1.1.6-.1 0-9.3-1.3-13.4 5.4-.2.3-.6.6-1 .5-.5 0-11.1-.3-13.1 8.3-.1.5-.5.9-1.1.8-11.2-.5-12.1 6.1-12.6 9.7l-.1.4c-.1.6-.7 1-1.2.9-.6-.1-1-.6-.9-1.2l.1-.4c.4-3.2 1.6-11.6 13.7-11.6h.2c2.5-8.2 11.9-9 14.4-9.1 4.3-6.3 12.1-6.2 14.5-6 1.4-2.2 6.4-8.8 16-6.8.6.1 1 .7.8 1.3 0 .2-.1.4-.3.5-3.4 3.7-6 8.2-8.4 12.5-3.6 6.4-7.5 12.7-11.5 18.9-3.2 4.9-7.3 10.4-13.1 13.9 0 .1-.2.2-.4.2z" data-color="1" class="icon1"></path><path d="M64.4 146c-8 0-15.5-.9-21.9-2-7.2-1.3-15.4-3.3-22.1-8.7-.5-.4-.5-1.1-.2-1.5 0-.1.1-.1.2-.2.4-.3 10.1-8.1 20-2.9 5.4-6.4 12.1-8.6 19.9-6.3 1.2-3.3 3.3-5.8 6.1-7.2 2.9-1.5 6.5-1.9 9.9-1 1-2.2 2.9-4.1 5.2-5.2 3.2-1.5 7.1-1.7 10.6-.5.6.2.9.8.7 1.4-.2.6-.8.9-1.4.7h-.1c-3-1.1-6.2-.9-8.9.4-2.2 1.1-3.8 2.8-4.5 4.9-.2.6-.8.9-1.4.7-3.2-1-6.5-.8-9.2.6-2.6 1.3-4.4 3.8-5.4 7-.2.6-.8.9-1.4.7-11-3.6-16.7 3.1-18.6 5.4-.6.7-1.2 1.4-2 .9-7-4.1-14.3-.3-17.1 1.5 6.1 4.4 13.4 6.2 19.9 7.4 15.5 2.8 38.1 4.1 57.6-5.8 7.1-3.6 12.2-9 16.3-16.9.3-.5.9-.7 1.5-.5.5.3.7.9.5 1.5-4.3 8.3-9.7 14-17.2 17.8-12 5.8-25.1 7.8-37 7.8zm-23.3-14.9z" data-color="1" class="icon1"></path><path d="M77.4 91.6h-.1C71.1 91 63.4 86.2 61 77.2c-.1-.6.3-1.2.8-1.3.5-.1 1.1.2 1.2.7 2.1 8 9 12.3 14.4 12.9.6.1 1 .6 1 1.2 0 .5-.5.9-1 .9z" data-color="1" class="icon1"></path><path d="M72.1 100.5c-6.9 0-12.6-5-13.7-6.8-.3-.5-.2-1.2.3-1.5.5-.3 1.2-.2 1.5.3 1 1.6 8.4 7.9 16.1 5 .6-.2 1.2.1 1.4.6.2.6-.1 1.2-.6 1.4-1.6.7-3.3 1-5 1z" data-color="1" class="icon1"></path></g></g>
</svg>
</g></svg>